<?xml version="1.0" standalone="no"?>
<!DOCTYPE svg PUBLIC "-//W3C//DTD SVG 1.0//EN" "http://www.w3.org/TR/2001/REC-SVG-20010904/DTD/svg10.dtd">
<svg xmlns="http://www.w3.org/2000/svg" xmlns:xlink="http://www.w3.org/1999/xlink" id="body_1" width="62" height="46">

<g transform="matrix(0.30243903 0 0 0.2987013 0 0)">
	<g transform="matrix(4.8125 0 0 4.8125 25.500006 -0)">
        <path d="M17 32L15 32C 13.343145 32 12 30.656855 12 29C 11.986685 28.598722 11.734663 28.244316 11.36 28.1C 11.12 28.033335 10.9 27.953335 10.7 27.86C 10.341288 27.68495 9.912833 27.73998 9.61 28C 8.444698 29.13691 6.5853004 29.13691 5.4199996 28L5.4199996 28L4 26.58C 2.8630903 25.4147 2.8630903 23.555302 4 22.39C 4.273468 22.09579 4.3443584 21.666508 4.18 21.3C 4.06 21.1 3.9566667 20.880001 3.87 20.64C 3.7300453 20.274937 3.3901753 20.024918 3 20C 1.3431456 20 0 18.656855 0 17L0 17L0 15C 0 13.343145 1.3431456 12 3 12C 3.4012766 11.986685 3.7556818 11.734663 3.9 11.36C 3.9666667 11.12 4.0466666 10.9 4.14 10.7C 4.3150496 10.341287 4.260019 9.912832 4 9.61C 2.863091 8.444698 2.863091 6.5853014 4 5.42L4 5.42L5.42 4C 6.5853014 2.863091 8.444698 2.863091 9.61 4C 9.904207 4.273468 10.33349 4.3443584 10.7 4.18L10.7 4.18L11.36 3.9099998C 11.737949 3.7642837 11.990662 3.4049587 12 3C 12 1.3431456 13.343145 0 15 0L15 0L17 0C 18.656855 0 20 1.3431456 20 3C 20.013315 3.4012766 20.265337 3.7556815 20.64 3.9L20.64 3.9L21.3 4.17C 21.664555 4.336995 22.09361 4.2700777 22.39 4C 23.555302 2.8630903 25.4147 2.8630903 26.58 4L26.58 4L28 5.42C 29.13691 6.5853014 29.13691 8.444699 28 9.610001C 27.726532 9.904209 27.655642 10.333491 27.82 10.700001C 27.920002 10.920001 28.010002 11.140001 28.09 11.360001C 28.235716 11.737949 28.595041 11.990662 29 12C 30.656855 12 32 13.343145 32 15L32 15L32 17C 32 18.656855 30.656855 20 29 20C 28.598722 20.013317 28.244318 20.265337 28.1 20.64C 28.02 20.86 27.93 21.08 27.83 21.3C 27.668253 21.668467 27.743124 22.09799 28.02 22.39C 29.15691 23.555302 29.15691 25.4147 28.02 26.58L28.02 26.58L26.58 28C 26.189962 28.387724 25.560038 28.387724 25.17 28C 24.782276 27.609962 24.782276 26.980038 25.17 26.59L25.17 26.59L26.630001 25.130001C 26.991945 24.74505 26.991945 24.144949 26.630001 23.76C 25.767725 22.881279 25.529833 21.564945 26.03 20.44C 26.12 20.26 26.19 20.07 26.27 19.880001C 26.704004 18.749348 27.788914 18.002232 29 18C 29.552284 18 30 17.552284 30 17L30 17L30 15C 30 14.447715 29.552284 14 29 14C 27.770441 13.988151 26.672604 13.227194 26.23 12.08C 26.163708 11.889231 26.08693 11.702291 26 11.5199995C 25.49983 10.395054 25.737722 9.07872 26.6 8.2C 26.961945 7.8150496 26.961945 7.21495 26.6 6.83L26.6 6.83L25.17 5.37C 24.785051 5.0080566 24.18495 5.0080566 23.8 5.37C 22.92128 6.232277 21.604946 6.4701686 20.48 5.97C 20.297709 5.8830705 20.11077 5.806291 19.92 5.74C 18.782837 5.3014727 18.024 4.2185516 18 3C 18 2.4477153 17.552284 2 17 2L17 2L15 2C 14.447715 2 14 2.4477153 14 3C 13.98815 4.229558 13.227194 5.3273964 12.08 5.77C 11.889231 5.836291 11.702291 5.91307 11.5199995 6C 10.395055 6.5001683 9.07872 6.2622766 8.2 5.4C 7.8150496 5.038058 7.21495 5.038058 6.83 5.4L6.83 5.4L5.37 6.83C 5.0080576 7.21495 5.0080576 7.8150496 5.37 8.2C 6.242587 9.0719 6.49253 10.389058 6 11.52C 5.91 11.700001 5.84 11.89 5.76 12.080001C 5.335253 13.236688 4.2322006 14.004028 3 14C 2.4477153 14 2 14.447715 2 15L2 15L2 17C 2 17.552284 2.4477153 18 3 18C 4.229558 18.011848 5.3273964 18.772804 5.77 19.92C 5.836292 20.11077 5.913071 20.297709 6 20.48C 6.5001683 21.604946 6.2622766 22.92128 5.4 23.8C 5.0380573 24.18495 5.0380573 24.785051 5.4 25.17L5.4 25.17L6.86 26.630001C 7.24495 26.991945 7.8450503 26.991945 8.2300005 26.630001C 9.108721 25.767725 10.425055 25.529833 11.55 26.03C 11.732291 26.11693 11.919231 26.19371 12.110001 26.26C 13.235382 26.708027 13.980925 27.788868 14 29C 14 29.552284 14.447715 30 15 30L15 30L17 30C 17.552284 30 18 29.552284 18 29C 18.011848 27.770441 18.772804 26.672604 19.92 26.23C 20.110764 26.16371 20.297714 26.086926 20.48 26C 20.98534 25.773563 21.578564 25.99966 21.805 26.505001C 22.031437 27.010342 21.80534 27.603563 21.3 27.83C 21.08 27.93 20.86 28.02 20.64 28.1C 20.265337 28.244318 20.013317 28.598722 20 29C 20 30.656855 18.656855 32 17 32z" stroke="none" fill="#38004D" fill-rule="nonzero" />
        <path d="M24 20.12C 24 19.820002 24 21.36 24 12.000001C 23.994017 11.851653 23.960089 11.705767 23.9 11.570001C 23.699999 11.150001 24.01 11.43 16.5 7.1300006C 16.1906 6.951368 15.8094015 6.951368 15.5 7.1300006C 7.84 11.51 8.25 11.130001 8.07 11.660001C 8 11.93 8 11.23 8 20C 8.01686 20.107983 8.0402355 20.21484 8.07 20.32C 8.115729 20.437202 8.176218 20.548098 8.25 20.65L8.25 20.65L8.5 20.869999C 16 25.14 15.64 25 16 25C 16.36 25 16 25.16 23.5 20.869999L23.5 20.869999L23.75 20.65C 23.892115 20.507559 23.980463 20.320263 24 20.12zM10 13.720001L15 16.580002L15 22.280003L10 19.420002zM17 16.580002L22 13.720002L22 19.420002L17 22.280003zM16 9.15L21 12L16 14.85L11 12z" stroke="none" fill="#9F85EC" fill-rule="nonzero" />
	</g>
</g>
</svg>